<?xml version="1.0" encoding="utf-8"?>
<!-- Generator: Adobe Illustrator 19.0.1, SVG Export Plug-In . SVG Version: 6.00 Build 0)  -->
<svg version="1.1" id="Layer_1" xmlns="http://www.w3.org/2000/svg" xmlns:xlink="http://www.w3.org/1999/xlink" x="0px" y="0px"
	 viewBox="0 0 262 185.3" enable-background="new 0 0 262 185.3" xml:space="preserve">
<g>
	<path fill="#E2231A" d="M93.2,133.9c-1.3,2.7-3.6,4.4-6.6,4.4c-2.4,0-4-1.2-4-3.9c0-2,3.4-10.5,3.4-11.5c0-0.6-0.4-0.9-0.8-0.9
		c-1.5,0-5.2,4.9-6.4,9.2l-1.8,6.6h-7.2l7.1-26.1h-2.4l0.3-0.7h3.2c1.7,0,5.2-0.3,6.6-1.2l-4,15.5h0.1c1.4-2.4,4.4-5.6,7.9-5.6
		c2.2,0,4.2,1.2,4.2,3.7c0,3.1-3.4,10.2-3.4,12c0,0.7,0.2,1,0.6,1c1,0,2.4-1.9,2.8-2.7L93.2,133.9z"/>
	<path fill="#E2231A" d="M111.8,134.5c-2.2,2.3-5.4,3.8-8.7,3.8c-4.7,0-8.5-2.2-8.5-7.4c0-6.8,6-11.3,12.4-11.3c3.1,0,7,1.3,7,5
		c0,4.3-4.6,5.8-8.2,5.8c-1.7,0-3-0.1-3.6-0.2l-0.5,1.6c-0.3,1-0.4,2.1-0.4,2.9c0,1.9,1.3,2.7,2.9,2.7c2.4,0,5.4-1.8,7.1-3.4
		L111.8,134.5z M102.3,129.6c0.5,0.1,1,0.1,1.6,0.1c1.1,0,1.9-0.7,2.5-1.9c0.5-1,1.6-4.5,1.6-5.5c0-1.1-0.5-1.9-1.6-1.9
		s-1.8,1.1-2.2,2.3L102.3,129.6z"/>
	<path fill="#E2231A" d="M129.5,120.7h7.2l-3.8,13.4c-0.2,0.6-0.3,1-0.3,1.4c0,0.5,0.3,0.8,0.7,0.8c0.5,0,0.9-0.3,2.6-2.6l0.6,0.4
		c-1.9,2.6-3.3,4.2-6.7,4.2c-2.1,0-3.5-0.8-4-3.1h-0.1c-1,1.9-2.8,3.1-5.2,3.1c-4.3,0-6.3-3.4-6.3-7.6c0-5.5,4.4-11.1,10.1-11.1
		c2.1,0,4,1.1,4.5,3.4h0.1L129.5,120.7z M123.6,124.1c-1.4,4.2-3,9.8-3,11.5c0,1.3,0.8,1.6,1.6,1.6c1.3,0,2.6-1.3,3.1-2.6
		c1.2-2.9,2.7-8.6,2.7-10.5c0-1.9-0.8-3.1-1.9-3.1C124.8,121.1,124.2,122.2,123.6,124.1z"/>
	<path fill="#E2231A" d="M141.7,121.4h-2.1l0.3-0.7h2.5c1.5,0,4.7,0,6.9-1l-1,3.8h0.1c0.9-1.4,2.9-3.8,5.1-3.8
		c2.1,0,3.2,1.4,3.2,3.3c0,2.3-1.5,3.5-3.4,3.5c-1.9,0-3-1.4-3-3.1c0-0.5,0.1-0.8,0.3-1.3l-0.1-0.1c-1.8,2-2.7,3.9-3.4,6.1l-2.6,9.6
		h-7.2L141.7,121.4z"/>
	<path fill="#E2231A" d="M157.3,120.6h2.6l1.5-5.3c2.7-0.8,5.5-1.7,8-3.2l-2.5,8.5h2.8l-0.2,0.7h-2.7l-3.5,12.2
		c-0.2,0.7-0.4,1.6-0.4,1.8c0,0.3,0.3,0.7,0.6,0.7c1.2,0,2.3-1.7,2.9-2.6l0.6,0.5c-0.7,0.7-2.3,4.3-6.7,4.3c-2,0-4-1.1-4-3.3
		c0-1.1,0.6-3.4,1-4.8l2.5-8.9h-2.7L157.3,120.6z"/>
	<path fill="#E2231A" d="M191.6,133.9c-1.3,2.7-3.6,4.4-6.6,4.4c-2.4,0-4-1.2-4-3.9c0-2,3.4-10.5,3.4-11.5c0-0.6-0.4-0.9-0.8-0.9
		c-1.5,0-5.2,4.9-6.4,9.2l-1.8,6.6h-7.2l7.1-26.1h-2.4l0.3-0.7h3.2c1.7,0,5.2-0.3,6.6-1.2l-4,15.5h0.1c1.4-2.4,4.4-5.6,7.9-5.6
		c2.2,0,4.2,1.2,4.2,3.7c0,3.1-3.4,10.2-3.4,12c0,0.7,0.2,1,0.6,1c1,0,2.4-1.9,2.8-2.7L191.6,133.9z"/>
</g>
<polygon fill="#E2231A" points="203.9,138.5 202,138.5 202,48.8 60.1,48.8 60.1,138.5 58.2,138.5 58.2,46.9 203.9,46.9 "/>
</svg>
